<mxfile host="app.diagrams.net" modified="2024-01-09T02:39:51.984Z" agent="Mozilla/5.0 (Windows NT 10.0; Win64; x64) AppleWebKit/537.36 (KHTML, like Gecko) Chrome/120.0.0.0 Safari/537.36" etag="UojYtIGq5sQeI25pPTG2" version="22.1.17" type="device">
  <diagram id="C5RBs43oDa-KdzZeNtuy" name="Page-1">
    <mxGraphModel dx="1050" dy="522" grid="0" gridSize="10" guides="0" tooltips="1" connect="1" arrows="1" fold="1" page="1" pageScale="1" pageWidth="827" pageHeight="1169" background="#fdfcfc" math="0" shadow="0">
      <root>
        <mxCell id="WIyWlLk6GJQsqaUBKTNV-0" />
        <mxCell id="WIyWlLk6GJQsqaUBKTNV-1" parent="WIyWlLk6GJQsqaUBKTNV-0" />
        <mxCell id="kTdOyXXWkNQUAffg_phT-4" style="edgeStyle=orthogonalEdgeStyle;rounded=0;orthogonalLoop=1;jettySize=auto;html=1;exitX=0.5;exitY=1;exitDx=0;exitDy=0;entryX=0.5;entryY=0;entryDx=0;entryDy=0;" edge="1" parent="WIyWlLk6GJQsqaUBKTNV-1" source="WkbpH7bGcFeqxeOGf24K-0" target="kTdOyXXWkNQUAffg_phT-3">
          <mxGeometry relative="1" as="geometry" />
        </mxCell>
        <mxCell id="WkbpH7bGcFeqxeOGf24K-0" value="Start" style="ellipse;whiteSpace=wrap;html=1;aspect=fixed;" parent="WIyWlLk6GJQsqaUBKTNV-1" vertex="1">
          <mxGeometry x="175" y="50" width="80" height="80" as="geometry" />
        </mxCell>
        <mxCell id="WkbpH7bGcFeqxeOGf24K-15" style="edgeStyle=orthogonalEdgeStyle;rounded=0;orthogonalLoop=1;jettySize=auto;html=1;exitX=0.5;exitY=1;exitDx=0;exitDy=0;entryX=0.5;entryY=0;entryDx=0;entryDy=0;" parent="WIyWlLk6GJQsqaUBKTNV-1" source="WkbpH7bGcFeqxeOGf24K-7" target="WkbpH7bGcFeqxeOGf24K-12" edge="1">
          <mxGeometry relative="1" as="geometry" />
        </mxCell>
        <mxCell id="WkbpH7bGcFeqxeOGf24K-19" value="Close" style="edgeLabel;html=1;align=center;verticalAlign=middle;resizable=0;points=[];" parent="WkbpH7bGcFeqxeOGf24K-15" vertex="1" connectable="0">
          <mxGeometry x="-0.16" relative="1" as="geometry">
            <mxPoint x="-30" y="-3" as="offset" />
          </mxGeometry>
        </mxCell>
        <mxCell id="kTdOyXXWkNQUAffg_phT-35" style="edgeStyle=orthogonalEdgeStyle;rounded=0;orthogonalLoop=1;jettySize=auto;html=1;exitX=0;exitY=0.5;exitDx=0;exitDy=0;entryX=0;entryY=0.5;entryDx=0;entryDy=0;" edge="1" parent="WIyWlLk6GJQsqaUBKTNV-1" source="WkbpH7bGcFeqxeOGf24K-7" target="kTdOyXXWkNQUAffg_phT-5">
          <mxGeometry relative="1" as="geometry">
            <mxPoint x="104.4000244140625" y="303.6000061035156" as="targetPoint" />
            <Array as="points">
              <mxPoint x="109" y="409" />
              <mxPoint x="109" y="302" />
            </Array>
          </mxGeometry>
        </mxCell>
        <mxCell id="kTdOyXXWkNQUAffg_phT-36" value="Open" style="edgeLabel;html=1;align=center;verticalAlign=middle;resizable=0;points=[];" vertex="1" connectable="0" parent="kTdOyXXWkNQUAffg_phT-35">
          <mxGeometry x="-0.0053" y="-2" relative="1" as="geometry">
            <mxPoint x="19" y="2" as="offset" />
          </mxGeometry>
        </mxCell>
        <mxCell id="WkbpH7bGcFeqxeOGf24K-7" value="Magnetic condition&lt;br&gt;close or open?&amp;nbsp;" style="rhombus;whiteSpace=wrap;html=1;" parent="WIyWlLk6GJQsqaUBKTNV-1" vertex="1">
          <mxGeometry x="148" y="354" width="140" height="110" as="geometry" />
        </mxCell>
        <mxCell id="WkbpH7bGcFeqxeOGf24K-12" value="A" style="ellipse;whiteSpace=wrap;html=1;aspect=fixed;" parent="WIyWlLk6GJQsqaUBKTNV-1" vertex="1">
          <mxGeometry x="178" y="501" width="80" height="80" as="geometry" />
        </mxCell>
        <mxCell id="kTdOyXXWkNQUAffg_phT-0" style="edgeStyle=orthogonalEdgeStyle;rounded=0;orthogonalLoop=1;jettySize=auto;html=1;exitX=0.5;exitY=1;exitDx=0;exitDy=0;entryX=0.5;entryY=0;entryDx=0;entryDy=0;" edge="1" parent="WIyWlLk6GJQsqaUBKTNV-1" source="WkbpH7bGcFeqxeOGf24K-16" target="WkbpH7bGcFeqxeOGf24K-21">
          <mxGeometry relative="1" as="geometry" />
        </mxCell>
        <mxCell id="WkbpH7bGcFeqxeOGf24K-16" value="A" style="ellipse;whiteSpace=wrap;html=1;aspect=fixed;" parent="WIyWlLk6GJQsqaUBKTNV-1" vertex="1">
          <mxGeometry x="397.5" y="60" width="80" height="80" as="geometry" />
        </mxCell>
        <mxCell id="kTdOyXXWkNQUAffg_phT-1" style="edgeStyle=orthogonalEdgeStyle;rounded=0;orthogonalLoop=1;jettySize=auto;html=1;exitX=0.5;exitY=1;exitDx=0;exitDy=0;" edge="1" parent="WIyWlLk6GJQsqaUBKTNV-1" source="WkbpH7bGcFeqxeOGf24K-21">
          <mxGeometry relative="1" as="geometry">
            <mxPoint x="438" y="290" as="targetPoint" />
          </mxGeometry>
        </mxCell>
        <mxCell id="kTdOyXXWkNQUAffg_phT-14" style="edgeStyle=orthogonalEdgeStyle;rounded=0;orthogonalLoop=1;jettySize=auto;html=1;exitX=0.5;exitY=1;exitDx=0;exitDy=0;entryX=0.5;entryY=0;entryDx=0;entryDy=0;" edge="1" parent="WIyWlLk6GJQsqaUBKTNV-1" source="WkbpH7bGcFeqxeOGf24K-21" target="kTdOyXXWkNQUAffg_phT-12">
          <mxGeometry relative="1" as="geometry" />
        </mxCell>
        <mxCell id="kTdOyXXWkNQUAffg_phT-15" value="Yes" style="edgeLabel;html=1;align=center;verticalAlign=middle;resizable=0;points=[];" vertex="1" connectable="0" parent="kTdOyXXWkNQUAffg_phT-14">
          <mxGeometry x="-0.68" y="-2" relative="1" as="geometry">
            <mxPoint x="15" y="5" as="offset" />
          </mxGeometry>
        </mxCell>
        <mxCell id="kTdOyXXWkNQUAffg_phT-17" style="edgeStyle=orthogonalEdgeStyle;rounded=0;orthogonalLoop=1;jettySize=auto;html=1;exitX=0;exitY=0.5;exitDx=0;exitDy=0;entryX=1;entryY=0.5;entryDx=0;entryDy=0;" edge="1" parent="WIyWlLk6GJQsqaUBKTNV-1" source="WkbpH7bGcFeqxeOGf24K-21" target="kTdOyXXWkNQUAffg_phT-5">
          <mxGeometry relative="1" as="geometry" />
        </mxCell>
        <mxCell id="kTdOyXXWkNQUAffg_phT-18" value="No" style="edgeLabel;html=1;align=center;verticalAlign=middle;resizable=0;points=[];" vertex="1" connectable="0" parent="kTdOyXXWkNQUAffg_phT-17">
          <mxGeometry x="-0.5065" y="1" relative="1" as="geometry">
            <mxPoint x="18" y="14" as="offset" />
          </mxGeometry>
        </mxCell>
        <mxCell id="WkbpH7bGcFeqxeOGf24K-21" value="Check RTC if 10 minutes&lt;br&gt;has passed" style="rhombus;whiteSpace=wrap;html=1;" parent="WIyWlLk6GJQsqaUBKTNV-1" vertex="1">
          <mxGeometry x="370" y="160" width="135" height="135" as="geometry" />
        </mxCell>
        <mxCell id="kTdOyXXWkNQUAffg_phT-6" style="edgeStyle=orthogonalEdgeStyle;rounded=0;orthogonalLoop=1;jettySize=auto;html=1;exitX=0.5;exitY=1;exitDx=0;exitDy=0;entryX=0.5;entryY=0;entryDx=0;entryDy=0;" edge="1" parent="WIyWlLk6GJQsqaUBKTNV-1" source="kTdOyXXWkNQUAffg_phT-3" target="kTdOyXXWkNQUAffg_phT-5">
          <mxGeometry relative="1" as="geometry" />
        </mxCell>
        <mxCell id="kTdOyXXWkNQUAffg_phT-3" value="Initialisation of :&lt;br style=&quot;border-color: var(--border-color);&quot;&gt;SD Card&lt;br style=&quot;border-color: var(--border-color);&quot;&gt;RTC&lt;br&gt;Interrupt pin&lt;br style=&quot;border-color: var(--border-color);&quot;&gt;LoRa Connection" style="rounded=0;whiteSpace=wrap;html=1;" vertex="1" parent="WIyWlLk6GJQsqaUBKTNV-1">
          <mxGeometry x="153" y="144" width="130" height="81" as="geometry" />
        </mxCell>
        <mxCell id="kTdOyXXWkNQUAffg_phT-9" style="edgeStyle=orthogonalEdgeStyle;rounded=0;orthogonalLoop=1;jettySize=auto;html=1;exitX=0.5;exitY=1;exitDx=0;exitDy=0;entryX=0.5;entryY=0;entryDx=0;entryDy=0;" edge="1" parent="WIyWlLk6GJQsqaUBKTNV-1" source="kTdOyXXWkNQUAffg_phT-5" target="WkbpH7bGcFeqxeOGf24K-7">
          <mxGeometry relative="1" as="geometry" />
        </mxCell>
        <mxCell id="kTdOyXXWkNQUAffg_phT-5" value="checking interrupt event from reed switc" style="rounded=0;whiteSpace=wrap;html=1;" vertex="1" parent="WIyWlLk6GJQsqaUBKTNV-1">
          <mxGeometry x="150" y="272" width="135" height="60" as="geometry" />
        </mxCell>
        <mxCell id="kTdOyXXWkNQUAffg_phT-37" style="edgeStyle=orthogonalEdgeStyle;rounded=0;orthogonalLoop=1;jettySize=auto;html=1;exitX=0.5;exitY=1;exitDx=0;exitDy=0;" edge="1" parent="WIyWlLk6GJQsqaUBKTNV-1" source="kTdOyXXWkNQUAffg_phT-12">
          <mxGeometry relative="1" as="geometry">
            <mxPoint x="216" y="244" as="targetPoint" />
            <Array as="points">
              <mxPoint x="438" y="616" />
              <mxPoint x="68" y="616" />
            </Array>
          </mxGeometry>
        </mxCell>
        <mxCell id="kTdOyXXWkNQUAffg_phT-12" value="Sending Data&lt;br&gt;Save Data to sd card" style="rounded=0;whiteSpace=wrap;html=1;" vertex="1" parent="WIyWlLk6GJQsqaUBKTNV-1">
          <mxGeometry x="372.5" y="330" width="130" height="60" as="geometry" />
        </mxCell>
      </root>
    </mxGraphModel>
  </diagram>
</mxfile>
